<?xml version="1.0" standalone="no"?>
<!DOCTYPE svg PUBLIC "-//W3C//DTD SVG 20010904//EN"
 "http://www.w3.org/TR/2001/REC-SVG-20010904/DTD/svg10.dtd">
<svg version="1.0" xmlns="http://www.w3.org/2000/svg"
 width="700.000000pt" height="700.000000pt" viewBox="0 0 700.000000 700.000000"
 preserveAspectRatio="xMidYMid meet">
<metadata>
Created by potrace 1.14, written by Peter Selinger 2001-2017
</metadata>
<g transform="translate(0.000000,700.000000) scale(0.100000,-0.100000)"
fill="#000000" stroke="none">
<path d="M3275 6704 c-176 -16 -352 -44 -505 -79 -376 -85 -791 -270 -1110
-493 -351 -246 -682 -603 -909 -981 -322 -535 -468 -1077 -456 -1701 2 -124 6
-236 8 -250 3 -14 8 -50 12 -80 84 -710 410 -1380 919 -1885 302 -300 622
-518 1001 -680 120 -51 297 -115 388 -140 31 -8 81 -21 110 -29 129 -35 361
-74 502 -84 122 -9 453 -8 545 2 99 10 97 10 245 32 24 4 139 28 237 49 9 2
52 13 95 25 677 188 1273 592 1700 1151 59 78 203 293 203 304 0 4 9 19 20 35
28 39 141 268 185 375 33 79 121 332 130 375 2 8 20 82 39 163 56 238 71 374
71 672 0 298 -7 391 -50 620 -31 161 -116 453 -169 580 -242 570 -546 974
-1021 1356 -194 155 -490 325 -750 429 -271 109 -592 191 -840 215 -33 4 -71
9 -85 11 -32 6 -462 12 -515 8z"/>
</g>
</svg>
