<?xml version="1.0" encoding="UTF-8" standalone="no"?>
<!DOCTYPE svg PUBLIC "-//W3C//DTD SVG 1.1//EN" "http://www.w3.org/Graphics/SVG/1.1/DTD/svg11.dtd">
<svg width="100%" height="100%" viewBox="0 0 18 18" version="1.1" xmlns="http://www.w3.org/2000/svg" xmlns:xlink="http://www.w3.org/1999/xlink" xml:space="preserve" xmlns:serif="http://www.serif.com/" style="fill-rule:evenodd;clip-rule:evenodd;stroke-linejoin:round;stroke-miterlimit:2;">
    <g id="Core">
        <g id="search">
            <path id="Shape" d="M12.5,11L11.7,11L11.4,10.7C12.4,9.6 13,8.1 13,6.5C13,2.9 10.1,0 6.5,0C2.9,0 0,2.9 0,6.5C0,10.1 2.9,13 6.5,13C8.1,13 9.6,12.4 10.7,11.4L11,11.7L11,12.5L16,17.5L17.5,16L12.5,11ZM6.5,11C4,11 2,9 2,6.5C2,4 4,2 6.5,2C9,2 11,4 11,6.5C11,9 9,11 6.5,11Z"/>
        </g>
    </g>
</svg>
